Coordinates
version=1
nRows=16
nColumns=40
inDegrees=yes

Units are S.I. units (second, meters, Newtons, ...)
If the header above contains a line with 'inDegrees', this indicates whether rotational values are in degrees (yes) or radians (no).

endheader
time	pelvis_tilt	pelvis_list	pelvis_rotation	pelvis_tx	pelvis_ty	pelvis_tz	hip_flexion_r	hip_adduction_r	hip_rotation_r	knee_angle_r	knee_angle_r_beta	ankle_angle_r	subtalar_angle_r	mtp_angle_r	hip_flexion_l	hip_adduction_l	hip_rotation_l	knee_angle_l	knee_angle_l_beta	ankle_angle_l	subtalar_angle_l	mtp_angle_l	lumbar_extension	lumbar_bending	lumbar_rotation	arm_flex_r	arm_add_r	arm_rot_r	elbow_flex_r	pro_sup_r	wrist_flex_r	wrist_dev_r	arm_flex_l	arm_add_l	arm_rot_l	elbow_flex_l	pro_sup_l	wrist_flex_l	wrist_dev_l
      9.10000000	     18.66598957	      3.09731672	   -177.82959284	      0.32841468	      0.51309371	     -0.93003429	     94.74407608	    -47.53719914	     15.07364243	     81.44264634	      1.42144233	      4.63055975	      0.00000000	      0.00000000	    102.34903551	    -46.27873273	     21.90589912	     81.87829087	      1.42904576	      4.84673007	      0.00000000	      0.00000000	    -45.96694325	     -0.98005951	      1.13407021	     59.24601563	    -12.81983164	     67.40079885	     11.36115222	     83.88608438	      0.00000000	      0.00000000	     60.67045686	    -14.21070487	     77.67290448	     14.03446252	     59.03395340	      0.00000000	      0.00000000
      9.10500000	     18.68967645	      3.09651463	   -177.84656724	      0.32835793	      0.51424086	     -0.92985918	     94.50291136	    -47.52169792	     14.87652582	     81.20972890	      1.41737715	      4.55866108	      0.00000000	      0.00000000	    102.14388139	    -46.30391273	     21.73005544	     81.73154753	      1.42648461	      4.83622595	      0.00000000	      0.00000000	    -45.88922758	     -0.97591989	      1.17274791	     59.19908320	    -12.86036521	     67.60356844	     11.37453861	     83.84149359	      0.00000000	      0.00000000	     60.56644623	    -14.16885360	     77.56432791	     14.03212989	     58.63956522	      0.00000000	      0.00000000
      9.11000000	     18.81881518	      2.90229710	   -177.88185961	      0.32834444	      0.51516440	     -0.92979719	     94.66310493	    -47.46407019	     15.05653895	     81.00365436	      1.41378047	      4.41399716	      0.00000000	      0.00000000	    101.81579395	    -46.35539725	     21.26699608	     81.59996515	      1.42418806	      4.87307693	      0.00000000	      0.00000000	    -45.69420740	     -1.14033404	      1.00943241	     59.01800859	    -12.62466017	     66.94680757	     11.13750942	     83.27046550	      0.00000000	      0.00000000	     60.24508289	    -14.17305446	     76.36980321	     14.09060660	     57.73143642	      0.00000000	      0.00000000
      9.11500000	     18.62762540	      3.09057616	   -177.84122359	      0.32812042	      0.51673638	     -0.92945260	     93.90897743	    -47.57754735	     14.44058413	     80.78093797	      1.40989334	      4.52830063	      0.00000000	      0.00000000	    101.60867346	    -46.35298374	     21.33738765	     81.44368063	      1.42146038	      4.82593789	      0.00000000	      0.00000000	    -45.85824149	     -0.94366563	      1.19503235	     59.12344007	    -12.90330812	     67.97135538	     11.38186228	     83.73620355	      0.00000000	      0.00000000	     60.38101166	    -14.14570556	     77.49668383	     14.03919385	     57.96596503	      0.00000000	      0.00000000
      9.12000000	     18.81025587	      2.91553045	   -177.85873404	      0.32817818	      0.51750190	     -0.92937339	     94.14422703	    -47.52348596	     14.64615462	     80.60627013	      1.40684481	      4.36664158	      0.00000000	      0.00000000	    101.35866098	    -46.35880333	     20.91736156	     81.30373716	      1.41901791	      4.83108346	      0.00000000	      0.00000000	    -45.58659802	     -1.07965432	      1.01939128	     58.90179964	    -12.57833747	     66.86903734	     11.02458364	     83.33288347	      0.00000000	      0.00000000	     60.04287678	    -14.17371456	     76.17749039	     14.15847760	     57.14671465	      0.00000000	      0.00000000
      9.12500000	     18.59292377	      3.08666759	   -177.82603122	      0.32786025	      0.51910943	     -0.92904826	     93.37654422	    -47.64356356	     14.04129720	     80.35966720	      1.40254078	      4.39789995	      0.00000000	      0.00000000	    101.11577191	    -46.39427246	     20.94840636	     81.14845835	      1.41630778	      4.78087984	      0.00000000	      0.00000000	    -45.77376764	     -0.91451827	      1.24553404	     58.95058007	    -12.95194953	     67.91499390	     11.37711388	     83.61718850	      0.00000000	      0.00000000	     60.29955982	    -14.13411336	     77.85105212	     14.07876590	     58.19530104	      0.00000000	      0.00000000
      9.13000000	     18.64876794	      3.00013328	   -177.87901355	      0.32784672	      0.52017920	     -0.92896595	     93.29085670	    -47.57351922	     14.02031448	     80.13273869	      1.39858013	      4.31671320	      0.00000000	      0.00000000	    100.83453132	    -46.45813264	     20.64412024	     80.99087582	      1.41355745	      4.79359443	      0.00000000	      0.00000000	    -45.66039244	     -1.01621843	      1.23964213	     58.84805312	    -12.97598380	     67.57519536	     11.43173724	     83.82191780	      0.00000000	      0.00000000	     60.11602592	    -14.05637188	     77.34142440	     13.99224794	     57.82673951	      0.00000000	      0.00000000
      9.13500000	     18.60071245	      2.98391933	   -177.86854182	      0.32762472	      0.52142032	     -0.92880585	     93.01213151	    -47.63547537	     13.81298224	     79.95288601	      1.39544111	      4.26771236	      0.00000000	      0.00000000	    100.54356343	    -46.51181179	     20.40581415	     80.84038693	      1.41093092	      4.79171996	      0.00000000	      0.00000000	    -45.64645942	     -1.01478677	      1.23611707	     58.77853268	    -12.98743533	     67.67604552	     11.44109507	     83.77886323	      0.00000000	      0.00000000	     60.05095272	    -14.07853992	     77.47116212	     13.99960161	     57.83652385	      0.00000000	      0.00000000
      9.14000000	     18.74009544	      2.79185417	   -177.87206824	      0.32769828	      0.52236087	     -0.92870336	     93.17591599	    -47.59257656	     14.02146672	     79.73817136	      1.39169363	      4.16441585	      0.00000000	      0.00000000	    100.18108371	    -46.51534191	     19.90900623	     80.65350362	      1.40766919	      4.84887967	      0.00000000	      0.00000000	    -45.44953051	     -1.16668518	      1.06601438	     58.52431704	    -12.58699194	     66.15863208	     10.94487242	     83.07420775	      0.00000000	      0.00000000	     59.72325017	    -14.08265806	     75.84536517	     14.16485086	     56.90755093	      0.00000000	      0.00000000
      9.14500000	     18.58745696	      2.91679988	   -177.89135497	      0.32743988	      0.52387129	     -0.92849769	     92.55254920	    -47.64896807	     13.49030463	     79.51000426	      1.38771136	      4.19096861	      0.00000000	      0.00000000	     99.96938488	    -46.59770330	     19.90257431	     80.49817376	      1.40495817	      4.72662772	      0.00000000	      0.00000000	    -45.56049292	     -1.07158124	      1.26127966	     58.60801435	    -13.02927482	     67.29813518	     11.47995280	     84.03908311	      0.00000000	      0.00000000	     59.89626714	    -14.03436995	     77.34216622	     14.01385593	     57.55710504	      0.00000000	      0.00000000
      9.15000000	     18.59146848	      2.95831797	   -177.87673670	      0.32730154	      0.52506229	     -0.92827877	     92.23574301	    -47.69295437	     13.19792272	     79.28726409	      1.38382381	      4.15937807	      0.00000000	      0.00000000	     99.78166747	    -46.60090726	     19.76215961	     80.33702465	      1.40214559	      4.74953126	      0.00000000	      0.00000000	    -45.49485551	     -1.01444402	      1.28930107	     58.53770085	    -13.01313173	     67.42930327	     11.43153549	     83.86581194	      0.00000000	      0.00000000	     59.83779187	    -14.05212840	     77.53502156	     14.04608098	     57.56077093	      0.00000000	      0.00000000
      9.15500000	     18.54802452	      2.90531033	   -177.85040801	      0.32719104	      0.52637498	     -0.92817492	     91.99353795	    -47.74780176	     13.05069619	     79.07807832	      1.38017283	      4.07868923	      0.00000000	      0.00000000	     99.43058141	    -46.62971685	     19.45619489	     80.15768546	      1.39901553	      4.68338743	      0.00000000	      0.00000000	    -45.49050462	     -1.05196473	      1.24493564	     58.50052336	    -12.99589216	     67.71690910	     11.39271781	     83.70947581	      0.00000000	      0.00000000	     59.81096494	    -14.08863058	     77.54032436	     14.04806613	     58.37747778	      0.00000000	      0.00000000
      9.16000000	     18.58598831	      2.80632632	   -177.90446464	      0.32705841	      0.52753906	     -0.92813022	     91.90135696	    -47.70767197	     13.01563217	     78.85862544	      1.37634266	      3.99184669	      0.00000000	      0.00000000	     99.10916675	    -46.73363273	     19.09073780	     79.99092813	      1.39610507	      4.67496975	      0.00000000	      0.00000000	    -45.39581845	     -1.17099841	      1.23084791	     58.35083145	    -12.99695819	     67.15739271	     11.44625078	     83.89980278	      0.00000000	      0.00000000	     59.67468511	    -14.03370529	     77.26602827	     13.99588613	     57.80930346	      0.00000000	      0.00000000
      9.16500000	     18.63434105	      2.71625266	   -177.91320984	      0.32696562	      0.52871423	     -0.92804260	     91.81475596	    -47.71946555	     12.95785165	     78.64250314	      1.37257061	      3.83906646	      0.00000000	      0.00000000	     98.79621208	    -46.77452382	     18.74076226	     79.81026364	      1.39295188	      4.64505299	      0.00000000	      0.00000000	    -45.28764107	     -1.25216406	      1.18122406	     58.20713388	    -12.88450684	     66.54333270	     11.32045039	     84.02501128	      0.00000000	      0.00000000	     59.56711479	    -14.04468152	     76.94674487	     14.08587295	     57.38791784	      0.00000000	      0.00000000
      9.17000000	     18.58264527	      2.84097945	   -177.88579551	      0.32679254	      0.53009926	     -0.92782486	     91.28588816	    -47.79558782	     12.45279691	     78.40312090	      1.36839260	      3.94843103	      0.00000000	      0.00000000	     98.64696986	    -46.78291915	     18.70771652	     79.61907375	      1.38961498	      4.57641019	      0.00000000	      0.00000000	    -45.29594173	     -1.12801403	      1.25986595	     58.20475074	    -12.93654074	     66.96403468	     11.35330978	     84.00142673	      0.00000000	      0.00000000	     59.61950359	    -14.10781124	     77.83692744	     14.01655349	     58.61613301	      0.00000000	      0.00000000
      9.17500000	     18.58940389	      2.78128574	   -177.87811444	      0.32667507	      0.53138210	     -0.92771517	     91.09135881	    -47.83347943	     12.31471831	     78.16917953	      1.36430956	      3.89375017	      0.00000000	      0.00000000	     98.32981936	    -46.81536510	     18.38969676	     79.43905830	      1.38647312	      4.55553084	      0.00000000	      0.00000000	    -45.23780026	     -1.17970312	      1.24828415	     58.07049461	    -12.93838281	     66.68830232	     11.36811764	     83.78429074	      0.00000000	      0.00000000	     59.65992256	    -14.08302768	     78.08825716	     13.97903216	     59.54184551	      0.00000000	      0.00000000
